# xmcd
# Copyright (C) 1995-1998 Ti Kan
#
# Track frame offsets:
#       150
#       57640
#       117659
#       177364
#       241922
#
# Disc length: 4182 seconds
#
# Revision: 0
# Processed by: cddbd v1.5.2PL0 Copyright (c) Steve Scherf et al.
# Submitted via: CD-Transfer v1.0
#
DISCID=46105405
DTITLE=Friday Night Life Mixed By Dj René - 
DYEAR=1900
DGENRE=
TTITLE0=Mix
TTITLE1=Oldies
TTITLE2=90ies
TTITLE3=Party
TTITLE4=House Party
EXTD=
EXTT0=
EXTT1=
EXTT2=
EXTT3=
EXTT4=
PLAYORDER=
